<svg xmlns="http://www.w3.org/2000/svg" xmlns:xlink="http://www.w3.org/1999/xlink" width="108" height="108" viewBox="0 0 108 108">
  <defs>
    <clipPath id="clip-path">
      <circle id="Ellipse_702" data-name="Ellipse 702" cx="54" cy="54" r="54" transform="translate(0.078 0.078)" fill="#9d9c9e" opacity="0.5"/>
    </clipPath>
    <clipPath id="clip-path-2">
      <circle id="Ellipse_708" data-name="Ellipse 708" cx="54" cy="54" r="54" transform="translate(0.078 0.078)" fill="#cdc7d5" opacity="0.5"/>
    </clipPath>
    <clipPath id="clip-path-3">
      <rect id="Rectangle_3615" data-name="Rectangle 3615" width="20.638" height="69.033" rx="10.319" transform="translate(0 3.228) rotate(-9)" fill="none" stroke="#765099" stroke-width="15"/>
    </clipPath>
    <clipPath id="clip-path-4">
      <path id="Path_29856" data-name="Path 29856" d="M54,0A54,54,0,1,1,0,54,54,54,0,0,1,54,0Z" transform="translate(-7492 -9509)" fill="#9d9c9e" opacity="0.3"/>
    </clipPath>
  </defs>
  <g id="Group_8233" data-name="Group 8233" transform="translate(-6225.348 10025.652)">
    <circle id="Ellipse_865" data-name="Ellipse 865" cx="54" cy="54" r="54" transform="translate(6225.348 -10025.652)" fill="#fff"/>
    <path id="Path_29852" data-name="Path 29852" d="M54,0A54,54,0,1,1,0,54,54,54,0,0,1,54,0Z" transform="translate(6225.348 -10025.652)" fill="#553b78" opacity="0.3"/>
    <g id="Group_7804" data-name="Group 7804" transform="translate(6252.115 -10016.521)">
      <path id="Subtraction_7" data-name="Subtraction 7" d="M7479.351,9574.144a3.977,3.977,0,0,1-3.944-3.375l-4.28-27.021,4.859-5.363.229-.03.494,3.115a1,1,0,0,0,.985.844,1.291,1.291,0,0,0,.159-.012l4.938-.781a1.006,1.006,0,0,0,.832-1.146l-.463-2.926,2.366-.309-2.49-.476-.194-1.228a1,1,0,0,0-.987-.844.934.934,0,0,0-.159.013l-4.938.783a1.05,1.05,0,0,0-.174.043l-.967-.186-5.736.64-4.022-25.4a4.006,4.006,0,0,1,3.326-4.577l7-1.108,8.179,2.533-1.922,3.361,2.431,5.117a1,1,0,0,0,.174.367l1.357,2.856-.5-2.463c.031,0,.061-.006.093-.01l4.945-.781a1.006,1.006,0,0,0,.832-1.146l-.783-4.937a.994.994,0,0,0-.986-.844.923.923,0,0,0-.158.013l-4.254.675,2.7-2.749-3.356-3.378,18.439-2.92a4,4,0,0,1,4.578,3.323l1.538,9.715-2.571,3.95-1.749,4.58-.368-2.328a1,1,0,0,0-.987-.845,1.014,1.014,0,0,0-.157.013l-4.938.781a1,1,0,0,0-.832,1.144l.781,4.94a1,1,0,0,0,.987.844.98.98,0,0,0,.156-.013l4.938-.783a1,1,0,0,0,.831-1.144l-.258-1.631,2.627-3.836,2.568.356,6.978,44.539a4,4,0,0,1-3.326,4.575l-34.19,5.416A4.053,4.053,0,0,1,7479.351,9574.144Zm6.28-15.7a1.083,1.083,0,0,0-.158.012l-4.938.783a1,1,0,0,0-.829,1.145l.781,4.938a.994.994,0,0,0,.985.844,1.015,1.015,0,0,0,.159-.013l4.938-.78a1,1,0,0,0,.832-1.144l-.781-4.94A1,1,0,0,0,7485.631,9558.441Zm11.925-1.889a1.077,1.077,0,0,0-.158.012l-4.938.784a1,1,0,0,0-.831,1.144l.781,4.938a.992.992,0,0,0,.985.844,1.024,1.024,0,0,0,.159-.013l4.94-.78a1,1,0,0,0,.832-1.144l-.783-4.94A.994.994,0,0,0,7497.556,9556.553Zm11.924-1.889a1.083,1.083,0,0,0-.158.012l-4.938.784a1,1,0,0,0-.829,1.144l.781,4.938a.992.992,0,0,0,.985.844,1.015,1.015,0,0,0,.159-.013l4.938-.78a1,1,0,0,0,.831-1.144l-.781-4.94A1,1,0,0,0,7509.479,9554.664Zm-25.737-8.146a1.022,1.022,0,0,0-.158.013l-4.938.781a1,1,0,0,0-.829,1.144l.781,4.94a1,1,0,0,0,.985.844.842.842,0,0,0,.159-.013l4.938-.783a1,1,0,0,0,.832-1.144l-.781-4.937A1,1,0,0,0,7483.742,9546.518Zm11.925-1.889a1.016,1.016,0,0,0-.158.013l-4.937.781a1,1,0,0,0-.832,1.144l.781,4.94a1.008,1.008,0,0,0,.988.844.822.822,0,0,0,.156-.013l4.94-.783a1,1,0,0,0,.832-1.144l-.783-4.937A1,1,0,0,0,7495.667,9544.629Zm11.924-1.889a1.022,1.022,0,0,0-.158.013l-4.936.781a1,1,0,0,0-.832,1.144l.781,4.94a1.006,1.006,0,0,0,.985.844.842.842,0,0,0,.159-.013l4.938-.783a1,1,0,0,0,.831-1.144l-.781-4.937A1,1,0,0,0,7507.591,9542.74Zm-13.812-10.036a.894.894,0,0,0-.158.013l-4.937.783a.982.982,0,0,0-.651.4.992.992,0,0,0-.18.746l.781,4.938a1.007,1.007,0,0,0,.988.844,1.3,1.3,0,0,0,.156-.012l4.94-.781a1.006,1.006,0,0,0,.832-1.146l-.783-4.937A.994.994,0,0,0,7493.778,9532.7Zm11.924-1.889a.9.9,0,0,0-.158.013l-4.938.783a.982.982,0,0,0-.649.4,1,1,0,0,0-.18.748l.781,4.938a.993.993,0,0,0,.985.844,1.291,1.291,0,0,0,.159-.012l4.938-.781a1,1,0,0,0,.831-1.146l-.781-4.937A1,1,0,0,0,7505.7,9530.815Zm-25.737-8.146a1.083,1.083,0,0,0-.158.012l-4.938.781a1,1,0,0,0-.831,1.144l.783,4.94a1,1,0,0,0,1.144.831l4.938-.783a1,1,0,0,0,.832-1.144l-.781-4.937A1,1,0,0,0,7479.965,9522.67Zm11.925-1.889a1.077,1.077,0,0,0-.158.012l-4.937.781a1,1,0,0,0-.832,1.144l.781,4.94a1,1,0,0,0,1.144.831l4.94-.783a1,1,0,0,0,.832-1.144l-.783-4.937A.994.994,0,0,0,7491.89,9520.781Zm-13.813-10.037a.9.9,0,0,0-.158.013l-4.938.783a.985.985,0,0,0-.648.4,1,1,0,0,0-.183.748l.783,4.938a1,1,0,0,0,.985.844,1.29,1.29,0,0,0,.158-.012l4.938-.781a1.006,1.006,0,0,0,.832-1.146l-.783-4.937A.991.991,0,0,0,7478.076,9510.744Zm23.851-3.777a.89.89,0,0,0-.158.013l-4.938.783a.982.982,0,0,0-.651.4.993.993,0,0,0-.18.747l.781,4.938a1,1,0,0,0,.985.844,1.291,1.291,0,0,0,.159-.012l4.938-.781a1,1,0,0,0,.831-1.146l-.781-4.937A.994.994,0,0,0,7501.927,9506.967Z" transform="translate(-7465.233 -9499.869)" fill="#553b78"/>
    </g>
    <g id="Mask_Group_27" data-name="Mask Group 27" transform="translate(13717.348 -516.652)" clip-path="url(#clip-path-4)">
      <path id="Path_29853" data-name="Path 29853" d="M-7448.31-9441.193h68.387l-19.687,44.107-50.772,3.5-41.187-22.277v-25.327Z" fill="#fff" stroke="#9d9c9e" stroke-width="1"/>
      <g id="Group_7879" data-name="Group 7879" transform="translate(-7491.656 -9441.193)">
        <path id="Path_29854" data-name="Path 29854" d="M2337.865-6904.8h-43.128l-13.815,12.8,11.947,5.9-2.815,11.813-.84-10.928-17.947-7.265,9.216-12.324h-49.93" transform="translate(-2230.553 6904.801)" fill="none" stroke="#5c5f80" stroke-linecap="round" stroke-linejoin="round" stroke-width="1"/>
        <path id="Path_29855" data-name="Path 29855" d="M2339.315-6906.745h-18.609l-2.97,4.156.795,8.353-9.229-9.822.923-2.686h-12.274l-10.676,9.238,10.676,5.218-5.252,18.1-2.594-14.621-19.415-8.255,7.636-10.8-23.205-.116,1.209,4.213-8,8.425.312-8.814-3.251-3.823-11.108.116L2249.246-6876l43.259,17.173,27.776-8.165,10.7-17.641Z" transform="translate(-2233.448 6909.638)" fill="#a28bc2"/>
        <path id="Path_29927" data-name="Path 29927" d="M2337.865-6904.8H2291.76l-4.092,5.711,1.253,6.2-5.406-6.658,2.439-5.249h-55.4" transform="translate(-2205.553 6904.801)" fill="none" stroke="#5c5f80" stroke-linecap="round" stroke-linejoin="round" stroke-width="1"/>
        <path id="Path_29928" data-name="Path 29928" d="M2230.553-6904.8h46.105l4.092,5.711-1.253,6.2,5.406-6.658-2.439-5.249h55.4" transform="translate(-2263.553 6904.801)" fill="none" stroke="#5c5f80" stroke-linecap="round" stroke-linejoin="round" stroke-width="1"/>
      </g>
    </g>
  </g>
</svg>
