<svg xmlns="http://www.w3.org/2000/svg" xmlns:xlink="http://www.w3.org/1999/xlink" width="108" height="108" viewBox="0 0 108 108">
  <defs>
    <clipPath id="clip-path">
      <circle id="Ellipse_738" data-name="Ellipse 738" cx="54" cy="54" r="54" transform="translate(-0.173 -0.173)" fill="#73b7fe" stroke="#707070" stroke-width="1" opacity="0.5"/>
    </clipPath>
  </defs>
  <g id="Group_7810" data-name="Group 7810" transform="translate(-3849.381 8297.619)">
    <circle id="Ellipse_737" data-name="Ellipse 737" cx="54" cy="54" r="54" transform="translate(3849.381 -8297.619)" fill="#eb3131" opacity="0.3"/>
    <g id="Mask_Group_18" data-name="Mask Group 18" transform="translate(3849.554 -8297.446)" clip-path="url(#clip-path)">
      <g id="Group_7867" data-name="Group 7867" transform="translate(8035.266 9367.031)">
        <path id="Path_29935" data-name="Path 29935" d="M-8029.32-9444.91s-5.614-1.189-6.269-6.2,3.9-7.775,3.9-7.775" transform="translate(35.853 106.664)" fill="none" stroke="#646061" stroke-linecap="round" stroke-linejoin="round" stroke-width="1"/>
        <path id="Path_29934" data-name="Path 29934" d="M-8024.172-9460.51a7.376,7.376,0,0,1,6.869-4.665,7.1,7.1,0,0,1,7.1,4.665" transform="translate(35.853 105.031)" fill="none" stroke="#646061" stroke-linecap="round" stroke-linejoin="round" stroke-width="1"/>
        <path id="Path_29933" data-name="Path 29933" d="M-8010.2-9460.51a5.929,5.929,0,0,1,4.726,0,4.777,4.777,0,0,1,2.47,3.258" transform="translate(35.853 105.031)" fill="none" stroke="#646061" stroke-linecap="round" stroke-linejoin="round" stroke-width="1"/>
        <path id="Path_29932" data-name="Path 29932" d="M-8001.8-9455.754s3.866.216,2.871,5.087-6.532,3.914-6.532,3.914" transform="translate(34.714 104.664)" fill="none" stroke="#646061" stroke-linecap="round" stroke-linejoin="round" stroke-width="1"/>
        <path id="Path_29835" data-name="Path 29835" d="M-8124.137-9295.315s9.978-8.942,16.631-18.94a89.73,89.73,0,0,0,9.979-21.043,26.16,26.16,0,0,1,.927-2.479,1.514,1.514,0,0,1,1.388-.919h14.059a2.7,2.7,0,0,1,1.718.474,3.459,3.459,0,0,1,.847,1.735,66.928,66.928,0,0,0,8.775,19.839c6.658,10.22,17.854,21.043,17.854,21.043s2.289,1.662,2.267,3.467a2.077,2.077,0,0,1-2.267,2.3h-72.176a2.536,2.536,0,0,1-2.2-2.675C-8126.386-9293.87-8124.137-9295.315-8124.137-9295.315Z" transform="translate(106.582 8.028)" fill="#e6adad"/>
        <path id="Path_29936" data-name="Path 29936" d="M-7612.615-9297.647s-.774-4.927,0-8.239a8.214,8.214,0,0,1,3.625-4.911" transform="translate(-364.357 -29.779)" fill="none" stroke="#646061" stroke-linecap="round" stroke-linejoin="round" stroke-width="1"/>
        <path id="Path_29937" data-name="Path 29937" d="M-7609.333-9297.647s.774-4.927,0-8.239a8.214,8.214,0,0,0-3.625-4.911" transform="translate(-376.346 -26.204)" fill="none" stroke="#646061" stroke-linecap="round" stroke-linejoin="round" stroke-width="1"/>
        <path id="Path_29836" data-name="Path 29836" d="M-8023.089-9335.3a26.035,26.035,0,0,1,.926-2.479,1.512,1.512,0,0,1,1.387-.919h14.06a2.7,2.7,0,0,1,1.717.474,3.46,3.46,0,0,1,.849,1.735,66.375,66.375,0,0,0,7.53,17.85c.155.26.694,1.408,0,1.765-1.237.681-6.39-5.917-8.379-7.661-3.411-2.992-4.772.51-4.47,3.258s1.882,4.8.974,7.752-5.524,4.037-7.917,3.6c-5.343-.976-4.175-7.841-3.459-10.636s.843-3.539.356-4.737-1.783-1.673-2.945,0c-1.466,2.13-1.162,10.345-6.29,9.235-2.646-.977-.944-3.723-.971-3.8A58.081,58.081,0,0,0-8023.089-9335.3Z" transform="translate(32.177 8.028)" fill="#eb3131"/>
        <path id="Path_29837" data-name="Path 29837" d="M-8011.223-9268.053c-3.847,1.937-10.812-7.468-11.263-7.445-.321.042-1.034.3.313,6.1a7.285,7.285,0,0,1-2.259,7.177c-2.691,2.691-10.175,2.466-12.767-1s.871-11.122,0-11.782c-1.208,5.274-4.5,9.763-7.593,8.951s-2.485-2.9-3.394-1.646-4.478,6.345-9.056,11.8a73.637,73.637,0,0,1-8.258,8.521s-2.12.876-2.365,2.751,2.365,2.595,2.365,2.595h72.015a1.773,1.773,0,0,0,2.208-1.5,4.037,4.037,0,0,0-.859-3.126l-11.4-11.894S-8007.667-9263.834-8011.223-9268.053Z" transform="translate(48.127 -39.757)" fill="#b95f1a" stroke="#a05217" stroke-linecap="round" stroke-linejoin="round" stroke-width="1"/>
        <path id="Path_29840" data-name="Path 29840" d="M-7980.366-9255.966c-.294,5.577-6.851,13.407-9.885,14.68" transform="translate(-12.753 -44.312)" fill="none" stroke="#a05217" stroke-linecap="round" stroke-width="1"/>
        <path id="Path_29841" data-name="Path 29841" d="M-7990.25-9255.966c.294,5.577,6.85,13.407,9.885,14.68" transform="translate(20.187 -44.312)" fill="none" stroke="#a05217" stroke-linecap="round" stroke-width="1"/>
        <path id="Path_29842" data-name="Path 29842" d="M-7952.281-9250.983v9.831" transform="translate(-29.158 -45.13)" fill="none" stroke="#a05217" stroke-linecap="round" stroke-width="1"/>
      </g>
    </g>
  </g>
</svg>
