<svg xmlns="http://www.w3.org/2000/svg" xmlns:xlink="http://www.w3.org/1999/xlink" width="108" height="108" viewBox="0 0 108 108">
  <defs>
    <clipPath id="clip-path">
      <circle id="Ellipse_746" data-name="Ellipse 746" cx="54" cy="54" r="54" transform="translate(0.383 0.383)" fill="#b7743e" opacity="0.3"/>
    </clipPath>
  </defs>
  <g id="Group_7871" data-name="Group 7871" transform="translate(-6097.166 8334.834)">
    <circle id="Ellipse_745" data-name="Ellipse 745" cx="54" cy="54" r="54" transform="translate(6097.166 -8334.834)" fill="#c5923d" opacity="0.3"/>
    <g id="Mask_Group_19" data-name="Mask Group 19" transform="translate(6096.783 -8335.217)" clip-path="url(#clip-path)">
      <g id="Group_7826" data-name="Group 7826" transform="translate(-6.68 12.486)">
        <path id="Path_29777" data-name="Path 29777" d="M308.1-8043.078a51.693,51.693,0,0,0,5.723,7.689c1.419,1.463-2.561,32.5,14.267,48.962,8.757,8.565,28.044,5.176,41.024,8.653,11.52,3.087,16.976,13.221,20.178,16.423l6.259,6.438,3.934,7.333-35.231,17.347-41.311-7.69-26.825-33.084-5.723-30.581,8.584-33.8Z" transform="translate(-290.396 8043.078)" fill="#c5923d"/>
        <path id="Path_29779" data-name="Path 29779" d="M558.878-8020.067l-1.851,2.5-.682,2.436,1.007,1.852s2.114,1.75,3.476,1.559,3.087-.8,2.957-1.978-.706-1.61-.893-3-2.064-2.461-2.064-2.461Z" transform="translate(-522.041 8023.578)" fill="#c5923d"/>
        <path id="Path_29780" data-name="Path 29780" d="M714.014-7876.093v2.1l-.436,2.457,1.7.753,2.338,2.021s2.813-.3,2.813-1.307.859-1.836.354-3.125-1.473-1.2-2.375-2.027S714.014-7876.093,714.014-7876.093Z" transform="translate(-659.033 7898.093)" fill="#c5923d"/>
        <path id="Path_29781" data-name="Path 29781" d="M714.549-7883.995c-1.054.294-1.312,2.671-1.312,2.671s-.721,1.586-.418,2.354a4.072,4.072,0,0,0,1.1,1.4,8.083,8.083,0,0,0,2.774,1.253c1.234.17,2.7-.285,2.7-1.253s1.037-1.583.553-2.817-1.626-1.331-2.49-2.119S715.6-7884.289,714.549-7883.995Z" transform="translate(-615.173 7954.553)" fill="#c5923d"/>
        <path id="Path_29782" data-name="Path 29782" d="M964-7582.657s-2.207-1.047-2.207-2.434S964-7588.2,964-7588.2s2.943.368,4.414,1.754a5.823,5.823,0,0,1,1.471,3.792s.792,3.792-.679,3.792S964-7582.657,964-7582.657Z" transform="translate(-876.07 7646.477)" fill="#c5923d"/>
      </g>
    </g>
    <path id="Path_29848" data-name="Path 29848" d="M313.823-8035.389c-.051,1.376-2.561,32.5,14.267,48.962,8.757,8.565,28.044,5.176,41.024,8.653,6.6,1.769-12.227-11.568-29.074-27.955-12.4-12.058-23.237-27.951-23.73-28.7C315.167-8036.153,313.874-8036.765,313.823-8035.389Z" transform="translate(5802.707 -281.653)" fill="#c5923d"/>
  </g>
</svg>
