<svg xmlns="http://www.w3.org/2000/svg" xmlns:xlink="http://www.w3.org/1999/xlink" width="108" height="108" viewBox="0 0 108 108">
  <defs>
    <clipPath id="clip-path">
      <circle id="Ellipse_789" data-name="Ellipse 789" cx="54" cy="54" r="54" transform="translate(-9791 -9336)" fill="#199696" opacity="0.3"/>
    </clipPath>
  </defs>
  <g id="Group_8001" data-name="Group 8001" transform="translate(9791 9336)">
    <circle id="Ellipse_788" data-name="Ellipse 788" cx="54" cy="54" r="54" transform="translate(-9791 -9336)" fill="#199696" opacity="0.3"/>
    <g id="Mask_Group_34" data-name="Mask Group 34" clip-path="url(#clip-path)">
      <g id="Group_8003" data-name="Group 8003">
        <g id="Group_8002" data-name="Group 8002" transform="translate(-9712.113 -9291.305)">
          <path id="Path_29813" data-name="Path 29813" d="M-8440.833-13361.248c2.609,2.248,4.352,7.992,3.982,13.4s-6.943,6.666-6.943,6.666" transform="translate(8452.269 13371.465)" fill="none" stroke="#9c4920" stroke-linecap="round" stroke-width="2"/>
          <path id="Union_41" data-name="Union 41" d="M9.516,7.841A16.579,16.579,0,0,1,1.337,2.369S4.893,7.747,9.754,9.278A16.324,16.324,0,0,1,0,9.371a20.325,20.325,0,0,0,9.041,1.322,16.315,16.315,0,0,1-8.7,1.874s6.3,1.027,10.716-1.538a16.7,16.7,0,0,1-6.584,7.308A20.759,20.759,0,0,0,11.5,12.645a16.826,16.826,0,0,1-4.289,7.79s4.373-3.71,5.691-8.4c2.533,3.987,7.443,6.3,7.443,6.3a16.7,16.7,0,0,1-6.584-7.308c4.417,2.565,10.716,1.538,10.716,1.538a16.309,16.309,0,0,1-8.7-1.873,20.329,20.329,0,0,0,9.04-1.322,16.318,16.318,0,0,1-9.754-.094c4.861-1.531,8.418-6.909,8.418-6.909A16.508,16.508,0,0,1,13.454,8.258c-.249-.077-.493-.158-.731-.245l0-.066-.02.011-.01-.044-.063.066A16.639,16.639,0,0,1,3.759,0S5.759,5.056,9.516,7.841Z" transform="translate(24.821 20.435) rotate(180)" fill="#42911c"/>
        </g>
        <g id="Group_8001-2" data-name="Group 8001" transform="translate(-9726.634 -9300.82)">
          <path id="Path_29813-2" data-name="Path 29813" d="M-8438.293-13361.248c-3.561,3.066-5.937,10.9-5.434,18.285s9.473,9.094,9.473,9.094" transform="translate(8456.555 13375.187)" fill="none" stroke="#9c4920" stroke-linecap="round" stroke-width="2"/>
          <path id="Union_41-2" data-name="Union 41" d="M12.982,17.181A22.618,22.618,0,0,0,1.824,24.646s4.852-7.336,11.483-9.425A22.271,22.271,0,0,0,0,15.093s6.287-2.6,12.335-1.8A22.258,22.258,0,0,0,.466,10.733s8.592-1.4,14.619,2.1A22.778,22.778,0,0,0,6.1,2.862s6.023,2.835,9.593,7.766A22.955,22.955,0,0,0,9.843,0s5.966,5.061,7.763,11.453C21.063,6.014,27.76,2.861,27.76,2.861a22.782,22.782,0,0,0-8.983,9.97c6.026-3.5,14.619-2.1,14.619-2.1A22.25,22.25,0,0,0,21.53,13.289c6.047-.791,12.332,1.8,12.332,1.8a22.263,22.263,0,0,0-13.307.128c6.631,2.089,11.484,9.426,11.484,9.426a22.522,22.522,0,0,0-13.685-8.034c-.34.1-.672.216-1,.334l0,.091-.027-.016-.014.06-.086-.09A22.7,22.7,0,0,0,5.128,27.878S7.856,20.98,12.982,17.181Z" transform="translate(0 0)" fill="#56ab2c"/>
        </g>
        <path id="Path_30019" data-name="Path 30019" d="M-9775.6-9618.3c.127.373,1.215.729,1.656.854,4.773,1.335,7.05,4.341,7.819,6.485.313.868.388,1.434,0,1.841s-1.67-.239-2.457-.5c-2.117-.707-6.167-1.834-9.987,2.1-4.954,5.1-2.349,11.959-1.969,13.381s4.333,7.956,7.761,8.558,4.6-6.158,11.043-6.1,5.067,6.23,8.6,6.1,4.242-6.909,9.169-6.77,8.039,6.668,11.5,6.77c2.957.087,3.6-5.918,8.728-6.1,5.42-.227,14.844,7.658,12.254,9.954-6.474,5.739-75.778,21.612-76.785,22-3.954,1.541-27.5-1.158-30.413-1.158s-18.572-6.678-18.572-6.678v-35.46s16.33-2.9,26.845-8.974,12.93-11.289,15.21-15.306c2.136-3.762,9.338-19.492,21.839-18.375.724.063,2.4.332,2.573,1.258s-1.009,1.386-1.741,1.638c-5.209,1.781-5.146,5.938-.256,6,8.3.1,13.314,3.984,16.021,8,.437.648,1.536,2.915,1.161,3.546s-2.837-.379-3.367-.512c-11.388-2.873-14.378,3.155-16.087,6.037C-9775.471-9619.018-9775.729-9618.676-9775.6-9618.3Z" transform="translate(36.282 317.902)" fill="none" stroke="#199696" stroke-width="1"/>
        <path id="Path_30020" data-name="Path 30020" d="M-9780.9-9615.838c.412.461.412.432,2.432.486,3.336.031,6.339,2.375,7.014,2.945a1.349,1.349,0,0,1,.515,1.607c-.19.367-.837-.018-1.605-.125a11.076,11.076,0,0,0-9.574,3.408c-4.716,4.859-2.892,13.453-2.892,13.453s2.636,10.876,11.666,11.008c2.77,0,4.615-6.263,9.1-6.263s5.132,6.119,8.9,6.263c4.261.161,4.78-6.921,9.559-6.855s7.678,6.592,11.337,6.855,4.779-6.987,9.69-6.855,10.385,8.034,6.031,9.756c-9.906,3.917-70.616,20.613-71.658,20.876-4.658,1.176-14.313,0-17.089,0s-29.785-9.407-29.785-9.407v-33.754s16.465-1.363,26.472-7.141,13.031-10.178,15.2-14c1.982-3.492,8.6-16.344,13.485-17.453.318-.076.97-.213,1.175.033s-.013.951-.013.951-2.694,5.275,5.045,5.475c9.434.113,12.758,5.689,12.758,5.689s.315.592,0,.738-.948-.088-1.259-.16c-11-2.5-15.539,9.25-15.963,9.832S-9781.381-9616.531-9780.9-9615.838Z" transform="translate(38.247 317.171)" fill="#199696"/>
        <path id="Path_30018" data-name="Path 30018" d="M-9680.385-9176.7c3.226,0,5.834.437,10.685-.6s9.965-5.7,13.636-11.013,9.109-4.72,13.9-4.72h15.077l22.158.7,7.285,30.353-45.651,7.366s-40.147.971-40.066.647-17.241-12.869-17.241-12.869l-2.833-9.864Z" transform="translate(-81.352 -70.788)" fill="#d4a351"/>
      </g>
    </g>
  </g>
</svg>
