<svg xmlns="http://www.w3.org/2000/svg" xmlns:xlink="http://www.w3.org/1999/xlink" width="108" height="108" viewBox="0 0 108 108">
  <defs>
    <clipPath id="clip-path">
      <circle id="Ellipse_755" data-name="Ellipse 755" cx="54" cy="54" r="54" transform="translate(4169.11 -7262.89)" fill="#73b7fe" opacity="0.3"/>
    </clipPath>
  </defs>
  <g id="Group_7807" data-name="Group 7807" transform="translate(-4169.11 7262.89)">
    <circle id="Ellipse_714" data-name="Ellipse 714" cx="54" cy="54" r="54" transform="translate(4169.11 -7262.89)" fill="#73b7fe" opacity="0.3"/>
    <g id="Mask_Group_22" data-name="Mask Group 22" clip-path="url(#clip-path)">
      <g id="Group_7864" data-name="Group 7864" transform="translate(7585.033 -1027.996)">
        <path id="Path_29821" data-name="Path 29821" d="M-3388.442-6125.924s8.027,3.83,14.4,2.934,11.083-8.15,11.083-8.15,6.927,9.046,16.707,9.046,14.18-9.046,14.18-9.046a19.368,19.368,0,0,0,16.706,7.661c11.308-.53,13.773-7.661,13.773-7.661s6.522,11.739,23.717,12.121,23.819,5.095,23.819,5.095l-65.59,49.16-68.8-29.275Z" transform="translate(-32.959 -50.508)" fill="#4076af"/>
        <path id="Path_29819" data-name="Path 29819" d="M40.709,44.311,48.34,22.035,35.773.752,12.626,12.192,1.022,45.8,24.155,49.11Z" transform="matrix(0.999, -0.052, 0.052, 0.999, -3380.547, -6203.116)" fill="none" stroke="#fff" stroke-width="3"/>
        <path id="Path_29822" data-name="Path 29822" d="M29.654,39.529,37.723,17.71,27.78.7,10.352,8.536.961,35.415,11.119,47.672Z" transform="matrix(0.999, -0.052, 0.052, 0.999, -3374.833, -6196.207)" fill="#fff"/>
        <path id="Union_20" data-name="Union 20" d="M42.235,31.2,29.493,8.491,5.722,19.425a3.858,3.858,0,0,1-4.893-1.59A3.178,3.178,0,0,1,2.3,13.319L29.009,1.032A3.7,3.7,0,0,1,30.792.707,3.86,3.86,0,0,1,34.206,2.63L48.6,28.271a3.178,3.178,0,0,1-1.467,4.515,3.679,3.679,0,0,1-1.54.333A3.859,3.859,0,0,1,42.235,31.2Z" transform="matrix(0.999, -0.052, 0.052, 0.999, -3376.053, -6206.781)" fill="#fff"/>
        <path id="Union_21" data-name="Union 21" d="M3.155,14.306.708,13.559A1,1,0,0,1,.044,12.31L2.627,3.863l-.137-.042a1,1,0,0,1-.664-1.248L2.4.707A1,1,0,0,1,3.644.044L8.416,1.5a1,1,0,0,1,.663,1.248L8.51,4.616A1,1,0,0,1,7.26,5.28L6.986,5.2,4.4,13.643a1,1,0,0,1-1.248.663Z" transform="translate(-3333.097 -6200.128) rotate(2)" fill="#fff"/>
        <path id="Path_29823" data-name="Path 29823" d="M-3392.745-6132.646s5.056,10.007,16.018,9.656,13.772-8.15,13.772-8.15,6.927,9.046,16.707,9.046,14.18-9.046,14.18-9.046a19.368,19.368,0,0,0,16.706,7.661c11.308-.53,13.773-7.661,13.773-7.661s3.226,8.354,21.748,7.661-21.748,29.439-21.748,29.439l-40.967,13.971-45.886-13.971s-33.433-30.784-21.141-29.439A16.392,16.392,0,0,0-3392.745-6132.646Z" transform="translate(-19.206 -40.004)" fill="#245a93"/>
      </g>
    </g>
  </g>
</svg>
