<svg xmlns="http://www.w3.org/2000/svg" xmlns:xlink="http://www.w3.org/1999/xlink" width="108" height="108" viewBox="0 0 108 108">
  <defs>
    <clipPath id="clip-path">
      <circle id="Ellipse_687" data-name="Ellipse 687" cx="54" cy="54" r="54" transform="translate(-0.025 -0.025)" fill="#fdcea9"/>
    </clipPath>
  </defs>
  <g id="Group_7835" data-name="Group 7835" transform="translate(-883.111 10025.889)">
    <circle id="Ellipse_686" data-name="Ellipse 686" cx="54" cy="54" r="54" transform="translate(883.111 -10025.889)" fill="#c5923d" opacity="0.3"/>
    <g id="Mask_Group_6" data-name="Mask Group 6" transform="translate(883.137 -10025.863)" clip-path="url(#clip-path)">
      <g id="Group_7798" data-name="Group 7798" transform="translate(-8.417 22.199)">
        <path id="Path_29743" data-name="Path 29743" d="M3727.562-13616.725c-13.281,13.2-53.707-2.114-53.707-2.114l-19.03-19.029-7.612-9.777-4.934-19.685,10.713-22.271,23.155,3.969,12.039,27.8,21.67,8.537Z" transform="translate(-3642.279 13698.871)" fill="#f08330"/>
        <path id="Path_29851" data-name="Path 29851" d="M3727.562-13616.725c-13.281,13.2-53.707-2.114-53.707-2.114l-19.03-19.029-7.612-9.777-4.934-19.685,10.713-22.271,23.155,3.969,12.039,27.8,21.67,8.537Z" transform="translate(-3640.279 13696.871)" fill="none" stroke="#f08330" stroke-width="1"/>
      </g>
    </g>
    <g id="Group_7799" data-name="Group 7799" transform="translate(914.105 -10003.283)">
      <path id="Path_29738" data-name="Path 29738" d="M3961.811-13573.945c2.326,0,3.2-1.708,5.267-3.327a13.184,13.184,0,0,0,2.984-3.151l2.107-5.954s-.527-3.546-2.107-4.729-4.213,0-4.213,0-2.107-2.1-2.809-2.1-3.248-1.707-5.267,0-2.809,6.83-2.809,6.83l1.053,5.954,1.755,3.151S3959.485-13573.945,3961.811-13573.945Z" transform="translate(-3936.413 13600.69)" fill="#f08330"/>
      <path id="Path_29739" data-name="Path 29739" d="M3917.993-13605.435a40.212,40.212,0,0,1,3.381-2.514c.492-.185,7.069.368,7.069.368v4.536l-7.745,5.334-4.3-2.206Z" transform="translate(-3916.396 13607.986)" fill="#f08330"/>
      <path id="Path_29740" data-name="Path 29740" d="M3924.958-13573.766l2.828-2.576a32.035,32.035,0,0,1,5.594,3.006,7.378,7.378,0,0,1,2.582,3.125l-3.381,2.147-2.336,1.409-2.459-1.962-2.828-2.76Z" transform="translate(-3920.839 13591.523)" fill="#f08330"/>
      <path id="Path_29741" data-name="Path 29741" d="M3976.3-13542.247s5.885-3.709,8.3-2.759,1.352,6.561,1.352,6.561-2.49,2.743-4.241,3.371a2.4,2.4,0,0,1-2.766-.857l-2.643-1.349Z" transform="translate(-3953.03 13575.618)" fill="#f08330"/>
      <path id="Path_29742" data-name="Path 29742" d="M3999.545-13538.188l5.092-7.705h3.862s3.819-.964,6.671,1.225a15.594,15.594,0,0,1,4.74,7.53c.176,1.052,2.282,7.18,2.282,7.18s-.658,5.209-3.336,8.055-7.373,3.327-7.373,3.327h-4.916a13.687,13.687,0,0,0-3.16-4.378,27.879,27.879,0,0,0-5.618-3.676l-1.58-3.328Z" transform="translate(-3960.455 13579.365)" fill="#f08330"/>
    </g>
  </g>
</svg>
