<svg xmlns="http://www.w3.org/2000/svg" xmlns:xlink="http://www.w3.org/1999/xlink" width="108.098" height="108.418" viewBox="0 0 108.098 108.418">
  <defs>
    <clipPath id="clip-path">
      <circle id="Ellipse_757" data-name="Ellipse 757" cx="54" cy="54" r="54" transform="translate(4169.11 -7262.89)" fill="#73b7fe" opacity="0.3"/>
    </clipPath>
  </defs>
  <g id="Group_7808" data-name="Group 7808" transform="translate(-5681.781 7412.219)">
    <path id="Path_29760" data-name="Path 29760" d="M54.049,0A54.049,54.049,0,1,1,0,54.049,54.049,54.049,0,0,1,54.049,0Z" transform="translate(5681.781 -7412.219)" fill="#a05217" opacity="0.3"/>
    <g id="Mask_Group_24" data-name="Mask Group 24" transform="translate(1512.721 -148.911)" clip-path="url(#clip-path)">
      <g id="Group_7870" data-name="Group 7870" transform="translate(7585.033 -1028.996)">
        <g id="Group_7869" data-name="Group 7869" transform="matrix(0.998, -0.07, 0.07, 0.998, 450.562, -249.238)">
          <path id="Path_29843" data-name="Path 29843" d="M26.407,34.535l6.755-19.619L24.355,0,8.133,8.017,0,31.571l16.212,2.321Z" transform="matrix(0.946, -0.326, 0.326, 0.946, -3384.964, -6199.962)" fill="none" stroke="#fff" stroke-width="3"/>
          <path id="Path_29844" data-name="Path 29844" d="M23.48,31.773l6.6-17.855L21.946,0,7.684,6.411,0,28.406l8.312,10.03Z" transform="matrix(0.946, -0.326, 0.326, 0.946, -3382.771, -6198.337)" fill="#fff"/>
          <path id="Union_22" data-name="Union 22" d="M29.322,21.374,20.392,5.46,3.733,13.123A2.7,2.7,0,0,1,.3,12.009,2.227,2.227,0,0,1,1.331,8.844L20.053.233A2.594,2.594,0,0,1,21.3.005,2.705,2.705,0,0,1,23.7,1.353L33.78,19.323a2.227,2.227,0,0,1-1.028,3.165,2.578,2.578,0,0,1-1.08.234A2.7,2.7,0,0,1,29.322,21.374Z" transform="matrix(0.946, -0.326, 0.326, 0.946, -3383.071, -6203.192)" fill="#fff"/>
          <path id="Union_23" data-name="Union 23" d="M1.879,9.894.737,9.545A1,1,0,0,1,.073,8.3L1.722,2.9a1,1,0,0,1,.111-.242,1,1,0,0,1-.512-1.188L1.546.737A1,1,0,0,1,2.795.073L5.567.921a1,1,0,0,1,.664,1.248L6.006,2.9a1,1,0,0,1-1.186.681,1,1,0,0,1-.043.251L3.128,9.23a1,1,0,0,1-1.249.663Z" transform="translate(-3353.214 -6207.349) rotate(-14)" fill="#fff"/>
        </g>
        <path id="Path_29847" data-name="Path 29847" d="M-3374.091-6119.246v2.235s-2.263,21.517,15.987,21.517,15.547-21.517,15.547-21.517v-14.129h67.969v37.1l-67.969,20.276-45.886-20.276-19.127-29.885Z" transform="translate(-19.206 -47.004)" fill="#a05217"/>
      </g>
      <g id="Group_7905" data-name="Group 7905" transform="matrix(0.998, 0.07, -0.07, 0.998, -533.589, -277.502)">
        <path id="Path_29938" data-name="Path 29938" d="M1134.8-6892.34l1.627-4.6a2.63,2.63,0,0,1,.831-1.107,2.392,2.392,0,0,1,1.315-.276l11.253,1.934a2.2,2.2,0,0,1,1.107.415,1.758,1.758,0,0,1,.45,1l.306,6.2Z" transform="translate(3103.614 -326.276)" fill="none" stroke="#fff" stroke-width="1"/>
        <path id="Subtraction_6" data-name="Subtraction 6" d="M11899.818,2224.649a2.035,2.035,0,0,1-.349-.031l-16.51-2.909a2.007,2.007,0,0,1-1.622-2.318l.46-2.614a2,2,0,0,1,1.97-1.653,2.018,2.018,0,0,1,.349.031l16.507,2.913a2,2,0,0,1,1.624,2.315l-.463,2.614A1.994,1.994,0,0,1,11899.818,2224.649Zm-1.681-5.022a1.425,1.425,0,1,0,1.428,1.425A1.425,1.425,0,0,0,11898.138,2219.627Zm-12.821-2.136a1.425,1.425,0,1,0,1.425,1.425A1.427,1.427,0,0,0,11885.316,2217.491Z" transform="translate(-7645.103 -9434.707)" fill="#fff"/>
        <rect id="Rectangle_3654" data-name="Rectangle 3654" width="2.5" height="3" rx="1" transform="matrix(0.985, 0.174, -0.174, 0.985, 4251.511, -7211.829)" fill="#fff"/>
        <rect id="Rectangle_3655" data-name="Rectangle 3655" width="2.5" height="3.2" rx="1" transform="matrix(0.985, 0.174, -0.174, 0.985, 4238.297, -7214.43)" fill="#fff"/>
      </g>
    </g>
  </g>
</svg>
