<svg xmlns="http://www.w3.org/2000/svg" width="108" height="108" viewBox="0 0 108 108">
  <g id="Group_7903" data-name="Group 7903" transform="translate(-2250.003 10025.997)">
    <circle id="Ellipse_685" data-name="Ellipse 685" cx="54" cy="54" r="54" transform="translate(2250.003 -10025.997)" fill="#eb3131" opacity="0.3"/>
    <g id="Group_7797" data-name="Group 7797" transform="translate(2267.839 -10012.086)">
      <path id="Path_130" data-name="Path 130" d="M8229.581-15247.029c1.717-.953-5.913-7.246-4.226-15.931s9.325-11.947,16.583-13.441c.26-.055.905,1.171,1.181,1.741s6.947,7.218,7.418,13.611c.031.653.562,8.574-5.923,13.709-.723.512-.2.939.56,1.205,7.766,1.879,18.174-1.543,21.723-7.437,3.081-5.684,4.047-9.934,1.524-18.766s-10.905-20.385-12.28-27.51-.308-11.314,0-12.205c.86-1.168.41-1.828-.668-1.557-2.8.107-12.629,4.082-12.8,11.459a34.788,34.788,0,0,0-6.868-12.258,70.939,70.939,0,0,1-8.232-10.277c-.816-1.365-2.69-1.227-1.717.721a13.691,13.691,0,0,1-1.7,9.922c-3.748,5.549-9.192,9.967-14.6,16.4s-12.221,16.467-11.578,28.816,10.25,18.77,14.151,20.582C8217.631-15245.7,8227.864-15246.078,8229.581-15247.029Z" transform="translate(-8197.938 15325.588)" fill="none" stroke="#eb3131" stroke-linecap="round" stroke-linejoin="round" stroke-width="1.5"/>
      <path id="Path_29734" data-name="Path 29734" d="M8265.435-15161.58c1.885-2.533-3.437-12.728,5.915-21.656,5.853-5.189,14.616-8.645,17.771-6.788,1.369.806.661,2.667,2.768,5.883s5.88,8.044,6.542,10.77,1.8,4.507-.884,11.391c-.078.22-.259,1.026.884.812,4.177-.393,7.862-5.232,8.441-6.293a18.629,18.629,0,0,0,1.093-12.6c-1.157-4.759-2.379-5.853-7.267-15.177-5.466-9.26-3.873-22.594-4.558-23.2s-1.873-.783-4.252,3.653-3.517,9.15-6.189,8.536-2.621-6.655-4.823-10.595-5.578-9.453-7.01-8.955-.449,4.342-3.279,6.945c-4.566,5.209-7.5,6.892-12.909,13.328a42.716,42.716,0,0,0-10.209,25.643,18.993,18.993,0,0,0,8.135,16.832C8256.889-15162.287,8263.55-15159.047,8265.435-15161.58Z" transform="translate(-8242.35 15236.099)" fill="#eb3131"/>
    </g>
  </g>
</svg>
